# xmcd
#
# Track frame offsets:
#	150
#	16275
#	37050
#	53925
#	69525
#	81225
#	100350
#	116625
#	134475
#	147375
#	161850
#	175500
#	189375
#	209325
#	222075
#	238725
#	253800
#	269325
#
# Disc length: 3809 seconds
#
# Revision: 2
# Processed by: cddbd v1.5.2PL0 Copyright (c) Steve Scherf et al.
# Submitted via: audiograbber 1.83.01
#
DISCID=140edf12
DTITLE=Various Artist - The Professional Series - Country Vol. 15
DYEAR=1900
DGENRE=
TTITLE0=Billy Ray Cyrus - Achy Breaky Heart
TTITLE1=Garth Brooks - Friends In Low Places
TTITLE2=George Strait - I Cross My Heart
TTITLE3=Mary Chapin Carpenter - Passionate Kisses
TTITLE4=Alan Jackson - She's Got The Rhythm (And I Got The Blues)
TTITLE5=Randy Travis - Hard Rock Bottom Of Your Heart
TTITLE6=Reba McEntire - What Am I Gonna Do About You
TTITLE7=Ricky Skaggs - Same Ol' Love
TTITLE8=Dwight Yoakam - It Only Hurts When I Cry
TTITLE9=George Strait - You Know Me Better Than That
TTITLE10=Marty Stuart - The Whiskey Ain't Workin' Anymore
TTITLE11=Holly Dunn - You Really Had Me Going
TTITLE12=Suzy Bogguss - Letting Go
TTITLE13=Thisha Yearwood - Wrong Side Of Memphis
TTITLE14=Ronnie Milsap - I Wouldn't Have Missed It For The World
TTITLE15=Mel McDaniel - Baby's Got Her Blue Jeans On
TTITLE16=Waylon Jennings - Amanda
TTITLE17=Ed Bruce - You're The Best Break This Old Heart Ever Had
EXTD=
EXTT0=
EXTT1=
EXTT2=
EXTT3=
EXTT4=
EXTT5=
EXTT6=
EXTT7=
EXTT8=
EXTT9=
EXTT10=
EXTT11=
EXTT12=
EXTT13=
EXTT14=
EXTT15=
EXTT16=
EXTT17=
PLAYORDER=
